<svg xmlns="http://www.w3.org/2000/svg" width="128" height="128" viewBox="0 0 128 128" role="img" aria-label="Vite logo">
  <defs>
    <linearGradient id="vite-a" x1="6" x2="235" y1="33" y2="344" gradientUnits="userSpaceOnUse">
      <stop stop-color="#41D1FF" />
      <stop offset="1" stop-color="#BD34FE" />
    </linearGradient>
    <linearGradient id="vite-b" x1="194" x2="236" y1="8" y2="293" gradientUnits="userSpaceOnUse">
      <stop stop-color="#FFEA83" />
      <stop offset=".08" stop-color="#FFDD35" />
      <stop offset="1" stop-color="#FFA800" />
    </linearGradient>
  </defs>
  <path fill="url(#vite-a)" d="M124.4 19.9 67.1 122.3c-1.2 2.2-4.3 2.2-5.6.1L3.6 19.9c-1.3-2.3.6-5.1 3.2-4.6l57.3 10.3a3 3 0 0 0 1.1 0l56-10.3c2.6-.5 4.6 2.3 3.2 4.6Z" />
  <path fill="url(#vite-b)" d="M91.4 1.9 49 10.2a1.5 1.5 0 0 0-1.2 1.4l-2.6 44a1.5 1.5 0 0 0 1.9 1.5l11.8-2.7c1.1-.3 2.1.7 1.9 1.8L57.3 73c-.2 1.1.8 2 1.9 1.7l7.3-2.2c1.1-.3 2.1.7 1.9 1.8l-5.6 27.2c-.4 1.8 2 2.8 3 1.3l.7-1 34.6-69.1c.6-1.2-.5-2.5-1.8-2.1l-12.1 2.4c-1.1.2-2-.8-1.7-1.9l7.9-27.3c.3-1.1-.7-2.1-1.9-1.9Z" />
</svg>
